<?xml version="1.0" encoding="UTF-8"?>
<svg id="_Шар_2" data-name="Шар 2" xmlns="http://www.w3.org/2000/svg" viewBox="0 0 1047.45 243.77">
  <defs>
    <style>
      .cls-1 {
        fill: #ff9000;
      }
    </style>
  </defs>
  <g id="Layer_1" data-name="Layer 1">
    <path class="cls-1" d="M132.53,243.77c-15.34-68.72,19.45-118.42,80.82-126.41,61.37-8,117.56,50.35,100.7,126.41l236.62-2.37c175.47-4.32,217.93-2.49,243.11,1.08-13.94-68.29,12.79-123.01,80.46-136.21,64.97-12.68,125.21,48.17,114.19,121.35,40.95-17.88,48.74-23.37,58.54-82.89,2.61-15.87-4.9-18.73-30.61-29.86-25.72-11.13-40.95-13.51-42.89-20.85,9.47-10.38,26.21-20.65,39.54-20.53-53.7-18.04-101.6-18.23-101.6-18.23-37.17-9.22-60.94-9.8-73.9-10.08-233.88-57.48-337.22-61.53-457.47-4.03-31.29,14.97-72.93,35.39-96.24,48.98-99.9-6.34-157.09,12.96-208.95,37.6C22.97,152.37,27.4,152.37,.17,171.6c-1.41,16.86,6.27,30.58,6.27,30.58,38.68-18.69,74.66-26.9,79.74-34.36-9.94,14.26-40.3,51.75-40.95,58.24s9.08,15.67,9.08,15.67c22.69,1.73,78.23,2.05,78.23,2.05Z"/>
  </g>
</svg>