<?xml version="1.0" encoding="UTF-8"?>
<svg id="_Шар_2" data-name="Шар 2" xmlns="http://www.w3.org/2000/svg" viewBox="0 0 160.81 160.81">
  <defs>
    <style>
      .cls-1 {
        fill: #666;
      }

      .cls-2 {
        fill: #303030;
      }

      .cls-3 {
        fill: #131313;
      }

      .cls-4 {
        fill: #5a5a5a;
      }
    </style>
  </defs>
  <g id="Layer_1" data-name="Layer 1">
    <g>
      <path class="cls-3" d="M160.81,80.41c0,44.41-36,80.4-80.4,80.4S0,124.81,0,80.41,36,0,80.41,0s80.4,36,80.4,80.41Z"/>
      <circle class="cls-2" cx="80.41" cy="80.41" r="76.47" transform="translate(-16.89 21.55) rotate(-13.83)"/>
      <path class="cls-1" d="M145.33,80.41c0,35.86-29.07,64.93-64.93,64.93S15.48,116.26,15.48,80.41,44.55,15.48,80.41,15.48s64.93,29.07,64.93,64.93Z"/>
      <path class="cls-4" d="M140.83,80.41c0,33.37-27.05,60.43-60.43,60.43s-60.43-27.06-60.43-60.43S47.03,19.97,80.41,19.97s60.43,27.05,60.43,60.43Z"/>
      <path class="cls-2" d="M133.53,80.41c0,29.34-23.78,53.12-53.12,53.12s-53.12-23.79-53.12-53.12S51.07,27.28,80.41,27.28s53.12,23.79,53.12,53.12Z"/>
      <path class="cls-4" d="M126.66,80.41c0,25.54-20.71,46.25-46.25,46.25s-46.25-20.71-46.25-46.25,20.71-46.25,46.25-46.25,46.25,20.71,46.25,46.25Z"/>
      <g>
        <path class="cls-2" d="M80.41,31.48s.32,.77,.74,2.1c.43,1.34,.96,3.25,1.42,5.54,.47,2.29,.87,4.97,1.15,7.83,.14,1.43,.25,2.91,.32,4.42,.08,1.5,.1,3.03,.12,4.56-.02,1.53-.03,3.06-.11,4.56-.05,1.51-.18,2.99-.31,4.42-.27,2.87-.68,5.54-1.15,7.83-.46,2.3-.99,4.21-1.43,5.54-.41,1.34-.74,2.1-.74,2.1,0,0-.33-.76-.74-2.1-.43-1.34-.96-3.25-1.43-5.54-.47-2.29-.88-4.97-1.15-7.83-.14-1.43-.26-2.91-.31-4.42-.08-1.5-.09-3.03-.11-4.56,.02-1.53,.03-3.06,.12-4.56,.06-1.51,.18-2.99,.32-4.42,.28-2.87,.68-5.54,1.15-7.83,.46-2.3,.99-4.21,1.42-5.54,.41-1.34,.74-2.1,.74-2.1Z"/>
        <path class="cls-2" d="M38.04,55.94s.82,.1,2.19,.41c1.37,.29,3.29,.8,5.51,1.54,2.22,.74,4.74,1.73,7.36,2.92,1.31,.59,2.65,1.24,3.99,1.94,1.34,.68,2.67,1.43,4.01,2.18,1.31,.78,2.63,1.55,3.9,2.38,1.28,.8,2.5,1.65,3.67,2.48,2.35,1.67,4.46,3.36,6.21,4.91,1.75,1.55,3.15,2.96,4.09,4,.95,1.03,1.45,1.69,1.45,1.69,0,0-.83-.1-2.19-.41-1.37-.29-3.29-.79-5.51-1.54-2.22-.74-4.74-1.72-7.36-2.92-1.31-.6-2.65-1.23-3.98-1.94-1.34-.68-2.67-1.44-4.01-2.18-1.31-.78-2.63-1.56-3.89-2.38-1.27-.81-2.5-1.64-3.67-2.48-2.35-1.67-4.46-3.36-6.21-4.91-1.75-1.55-3.15-2.96-4.09-4-.95-1.03-1.45-1.69-1.45-1.69Z"/>
        <path class="cls-2" d="M38.04,104.86s.5-.66,1.45-1.69c.94-1.04,2.34-2.45,4.09-4,1.75-1.55,3.86-3.24,6.21-4.91,1.17-.84,2.4-1.68,3.67-2.48,1.26-.82,2.58-1.6,3.89-2.38,1.33-.75,2.66-1.51,4.01-2.18,1.33-.71,2.68-1.34,3.98-1.94,2.62-1.2,5.14-2.18,7.36-2.92,2.22-.74,4.14-1.24,5.51-1.54,1.37-.31,2.19-.41,2.19-.41,0,0-.5,.67-1.45,1.7-.94,1.04-2.33,2.46-4.09,4-1.75,1.55-3.86,3.24-6.21,4.91-1.17,.83-2.39,1.68-3.67,2.48-1.26,.83-2.58,1.6-3.9,2.38-1.34,.75-2.67,1.5-4.01,2.18-1.33,.7-2.67,1.34-3.99,1.94-2.62,1.19-5.14,2.18-7.36,2.92-2.22,.75-4.13,1.25-5.51,1.54-1.37,.31-2.19,.41-2.19,.41Z"/>
        <path class="cls-2" d="M80.4,129.32s-.32-.76-.74-2.1c-.43-1.34-.96-3.25-1.42-5.54-.47-2.29-.88-4.97-1.15-7.84-.14-1.43-.25-2.91-.32-4.42-.08-1.51-.09-3.03-.12-4.56,.02-1.53,.03-3.06,.11-4.56,.06-1.51,.18-2.99,.31-4.42,.27-2.87,.68-5.54,1.15-7.83,.46-2.29,.99-4.2,1.43-5.54,.42-1.34,.74-2.1,.74-2.1,0,0,.33,.76,.74,2.1,.43,1.34,.96,3.25,1.43,5.54,.47,2.29,.88,4.97,1.15,7.83,.13,1.43,.25,2.91,.31,4.42,.08,1.5,.09,3.03,.11,4.56-.02,1.53-.03,3.06-.12,4.56-.06,1.5-.17,2.99-.31,4.42-.28,2.87-.68,5.54-1.15,7.84-.46,2.29-.99,4.2-1.42,5.54-.42,1.34-.74,2.1-.74,2.1Z"/>
        <path class="cls-2" d="M122.77,104.87s-.82-.1-2.19-.41c-1.37-.29-3.29-.79-5.51-1.54-2.22-.74-4.74-1.72-7.36-2.92-1.31-.59-2.65-1.24-3.98-1.94-1.35-.68-2.68-1.43-4.01-2.18-1.31-.78-2.63-1.55-3.89-2.38-1.28-.8-2.5-1.65-3.67-2.48-2.35-1.67-4.46-3.36-6.21-4.91-1.75-1.55-3.15-2.96-4.09-4-.95-1.03-1.45-1.7-1.45-1.7,0,0,.83,.1,2.19,.41,1.38,.29,3.29,.79,5.51,1.54,2.22,.74,4.74,1.72,7.36,2.92,1.31,.6,2.65,1.24,3.98,1.94,1.35,.68,2.67,1.44,4.01,2.19,1.31,.78,2.63,1.56,3.89,2.38,1.27,.81,2.5,1.64,3.67,2.48,2.34,1.67,4.46,3.37,6.21,4.91,1.76,1.55,3.15,2.96,4.09,4,.95,1.03,1.45,1.69,1.45,1.69Z"/>
        <path class="cls-2" d="M122.77,55.95s-.5,.66-1.45,1.69c-.94,1.04-2.33,2.45-4.09,4-1.75,1.55-3.86,3.24-6.21,4.91-1.17,.84-2.4,1.68-3.67,2.48-1.26,.82-2.58,1.6-3.89,2.38-1.33,.75-2.66,1.51-4.01,2.19-1.33,.71-2.67,1.34-3.98,1.94-2.62,1.2-5.14,2.18-7.36,2.92-2.22,.74-4.14,1.24-5.51,1.54-1.37,.31-2.19,.41-2.19,.41,0,0,.5-.66,1.45-1.69,.94-1.04,2.33-2.46,4.09-4,1.75-1.55,3.86-3.24,6.21-4.91,1.17-.83,2.4-1.68,3.67-2.48,1.26-.83,2.58-1.6,3.9-2.38,1.33-.75,2.66-1.5,4.01-2.18,1.33-.7,2.67-1.34,3.98-1.94,2.62-1.2,5.14-2.18,7.36-2.92,2.22-.75,4.13-1.25,5.51-1.54,1.37-.31,2.19-.41,2.19-.41Z"/>
      </g>
      <path class="cls-2" d="M91.37,80.41c0,6.05-4.91,10.96-10.96,10.96s-10.96-4.91-10.96-10.96,4.9-10.96,10.96-10.96,10.96,4.91,10.96,10.96Z"/>
      <circle class="cls-4" cx="80.42" cy="80.41" r="6.64"/>
    </g>
  </g>
</svg>