<?xml version="1.0" encoding="UTF-8"?>
<svg id="_Шар_2" data-name="Шар 2" xmlns="http://www.w3.org/2000/svg" viewBox="0 0 900.68 168.55">
  <g id="Layer_1" data-name="Layer 1">
    <path d="M35.29,168.55c9.22-7.35,35.43-5.4,35.43-5.4l108.77-6.08c20.82-5.37,32.92-3.87,32.92-3s473.03-.99,473.03-.99c22.04-10.66,51,3.68,51,3.68l119.9-15.53,15.37,5.71s17.29-10.37,19.88-10.8c2.59-.43,8.65-38.03,9.08-36.3,.43,1.73-40.68-70.24-40.68-70.24L796.95,0l-85.04,12.53-42.03,77.67-63.96,39.88-388.1,3.6,10.37-66.91L128.79,8.4,24.2,52.6,0,133.69l25.07,30.45,10.23,4.41Z"/>
  </g>
</svg>