<?xml version="1.0" encoding="UTF-8"?>
<svg id="_Шар_2" data-name="Шар 2" xmlns="http://www.w3.org/2000/svg" viewBox="0 0 1049.5 72.09">
  <g id="Layer_1" data-name="Layer 1">
    <g>
      <path d="M51.59,34c-10.23-10.08-20.89-6.48-28.09-12.96-7.21-6.48-6.77-9.2-9.65-8.7-2.88,.49-15.99,7.12-13.54,21.67,2.45,14.55,.87,25.35,28.24,27.08,27.37,1.73,106.17,10.95,108.05,9.94-7.06-5.19-9.15-17.07-9.15-17.07l-53.23-16.64-22.62-3.31Z"/>
      <path d="M308.96,53.95c-.21,9.44-5.69,17.04-8.57,18.14,173.88-9.49,424.98-11.87,491.1-8.2-1.51-3.46-2.8-11.24-2.8-11.24l-33.49-11.67-446.23,12.96Z"/>
      <path d="M1035.96,0c9.51,.86,13.54,4.04,13.54,4.04-4.18,23.19-15.13,37.31-38.9,42.5-23.77,5.19-51.2,10.72-59.31,8.53-8.11-2.19,6.34-11.36,6.34-11.36,10.04,.24,25.69-5.9,25.69-5.9l21.09-23.39,31.55-14.41Z"/>
    </g>
  </g>
</svg>