<?xml version="1.0" encoding="UTF-8"?>
<svg id="_Шар_2" data-name="Шар 2" xmlns="http://www.w3.org/2000/svg" viewBox="0 0 452.34 82.89">
  <defs>
    <style>
      .cls-1 {
        fill: #fff;
      }

      .cls-2 {
        fill: #b5eeff;
      }

      .cls-3 {
        fill: #303030;
      }
    </style>
  </defs>
  <g id="Layer_1" data-name="Layer 1">
    <g>
      <path class="cls-3" d="M452.34,38.69C303.95-4.5,232.87-8.24,154.13,11.34,95.06,26.04,34.31,66.09,0,80.78c95.06,5.76,160.77-1.23,226.17-9.98,65.4-8.75,226.17-32.11,226.17-32.11Z"/>
      <path class="cls-2" d="M428.75,38.98C293.76,.29,229.1-3.06,157.46,14.48,103.73,27.65,48.45,63.52,17.25,76.68c86.48,5.16,146.26-1.1,205.75-8.94,59.49-7.84,205.75-28.76,205.75-28.76Z"/>
      <g>
        <path class="cls-1" d="M54.91,57.95c-10.86,5.69-20.78,10.91-29.38,14.99l-3.98,3.98c4.65,.26,9.22,.48,13.72,.68l19.65-19.65Z"/>
        <path class="cls-1" d="M186.34,8.55c-9.62,1.57-19.19,3.56-28.87,5.93-4.07,1-8.15,2.12-12.22,3.36-20.33,20.2-40.62,40.43-60.91,60.68,11.39-.07,22.3-.36,32.87-.82,23.07-23.03,46.12-46.08,69.14-69.16Z"/>
        <path class="cls-1" d="M380.9,26.01c-14.59-3.7-28.27-6.88-41.17-9.59-13.67,13.65-27.33,27.31-41.01,40.96,19.93-2.78,40.45-5.67,59.13-8.31,7.68-7.68,15.37-15.37,23.05-23.05Z"/>
        <path class="cls-1" d="M389.9,44.51c23.17-3.29,38.85-5.53,38.85-5.53-8.99-2.58-17.66-4.99-26.05-7.26-4.26,4.27-8.53,8.53-12.79,12.8Z"/>
        <path class="cls-1" d="M266.72,61.81c16.66-16.61,33.31-33.24,49.96-49.86-38.59-6.82-70.11-8.85-99.32-6.95-23.61,23.69-47.24,47.35-70.9,71,26.84-2,51.73-4.99,76.54-8.25,11.77-1.55,26.95-3.62,43.72-5.93Z"/>
      </g>
    </g>
  </g>
</svg>