<?xml version="1.0" encoding="UTF-8"?>
<svg xmlns="http://www.w3.org/2000/svg" viewBox="0 0 82.06 57.12">
  <defs>
    <style>
      .cls-1, .cls-2 {
        fill: #b5eeff;
      }

      .cls-3 {
        fill: #303030;
      }

      .cls-2 {
        mix-blend-mode: screen;
      }

      .cls-4 {
        isolation: isolate;
      }
    </style>
  </defs>
  <g class="cls-4">
    <g id="_Шар_2" data-name="Шар 2">
      <g id="Layer_1" data-name="Layer 1">
        <g>
          <path class="cls-1" d="M0,40.56C52.87,.07,97.28-14.39,77.08,17.08c-10.08,15.7-23.2,35.29-28.81,40.05,8.5-12.5,2.23-16.49-8.68-17.79-10.91-1.3-21.82-.86-39.58,1.22Z"/>
          <path class="cls-2" d="M67.57,10.49c-4.63-5.32-28.39,5.35-49.99,17.34-5.7,3.89-11.58,8.13-17.58,12.73,8.07-.95,14.72-1.55,20.6-1.81l3.58-3.59c27.88,.07,48.46-18.84,43.38-24.67Z"/>
          <path class="cls-3" d="M39.58,39.33c10.91,1.3,17.18,5.29,8.68,17.79,5.62-4.75,18.73-24.34,28.81-40.05,14.41-22.45-4.06-21.51-35.02-4.44,13.54-5.51,25.93-9.29,29.73-7.66,6.68,2.87-2.27,18.69-17.94,35.01-.98-4.11-12.64-11.13-53.84,.58,17.76-2.09,28.67-2.52,39.58-1.22Z"/>
        </g>
      </g>
    </g>
  </g>
</svg>