<?xml version="1.0" encoding="UTF-8"?>
<svg id="_Шар_2" data-name="Шар 2" xmlns="http://www.w3.org/2000/svg" viewBox="0 0 66.01 60.56">
  <defs>
    <style>
      .cls-1 {
        fill: #fc6c00;
      }

      .cls-2 {
        fill: #303030;
      }

      .cls-3 {
        fill: #db5f0b;
      }

      .cls-4 {
        fill: #232320;
      }
    </style>
  </defs>
  <g id="Layer_1" data-name="Layer 1">
    <g>
      <path class="cls-1" d="M27.99,25.08S-2,43.51,.11,51.24c2.11,7.73,24.3,11.97,28.79,7.48s2.21-23.32,8.34-30.05c6.13-6.73-3.37-7.93-9.25-3.59Z"/>
      <path class="cls-3" d="M34.83,22.55c-.14,.17-.29,.35-.46,.53-6.13,6.73-3.85,25.57-8.34,30.05-3.68,3.68-19.24,1.49-25.9-3.67-.15,.64-.17,1.24-.02,1.78,2.11,7.73,24.3,11.97,28.79,7.48s2.21-23.32,8.34-30.05c3.93-4.32,1.43-6.35-2.41-6.12Z"/>
      <path class="cls-2" d="M45.48,.02S21.54-.88,12.69,11.21c-8.85,12.09,4.8,24.07,25.04,22.94,20.23-1.12,29.3-7,28.19-18.65C64.81,3.85,52.57,.34,45.48,.02Z"/>
      <path class="cls-4" d="M39.84,29.67c-17.48,.97-30.04-7.84-27.42-18.05-8.27,11.96,5.3,23.65,25.3,22.55,16.81-.93,25.89-5.16,27.85-13.25-3.91,5.18-12.37,8.02-25.73,8.76Z"/>
    </g>
  </g>
</svg>