<?xml version="1.0" encoding="UTF-8"?>
<svg id="_Шар_2" data-name="Шар 2" xmlns="http://www.w3.org/2000/svg" viewBox="0 0 700.48 69.11">
  <defs>
    <style>
      .cls-1 {
        fill: #ffb500;
      }
    </style>
  </defs>
  <g id="Layer_1" data-name="Layer 1">
    <path class="cls-1" d="M24.69,59.06s32.23-6.25,55.39,8.35c0,0,55.84-13.8,100.23-4.84,44.39,8.96,297.66,7.71,366.56,2.23,68.9-5.49,92.78,4.23,136.46-21.08,43.68-25.31-2.71-51.66-64.56-41.48-61.85,10.18-66.43,5.14-106.18,10.04-39.75,4.9-104.26,11.57-135.71,17.58-31.46,6.01-136.34,18.27-201.73,17.74-65.39-.54-122.77-13.85-175.15,2.61,0,0,18.71-.62,24.69,8.86Z"/>
  </g>
</svg>